PathFileType	4	(X/Y/Z)
DataRate	CameraRate	NumFrames	NumMarkers	Units	OrigDataRate	OrigDataStartFrame	OrigNumFrames	
	120.0	120.0	7	39	mm	120.0	29	231
Frame#	Time	midhip	hip_r	hip_l	knee_r	knee_l	ankle_r	ankle_l	midasis	asis_r	asis_l	psis_r	psis_l	epicondLat_r	epicondLat_l	epicondMed_r	epicondMed_l	malleolusLat_r	malleolusLat_l	malleolusMedv_r	malleolusMedv_l	heel_r	heel_l	sternalnotch	xyphoidprocess	neck	subclavicle_r	subclavicle_l	toe_r	toe_l	thighwand_r	thighwand_l	upperleg1_r	upperleg1_l	upperleg2_r	upperleg2_l	shankwand_r	shankwand_l	lowerleg1_r	lowerleg1_l
	X1	Y1	Z1	X2	Y2	Z2	X3	Y3	Z3	X4	Y4	Z4	X5	Y5	Z5	X6	Y6	Z6	X7	Y7	Z7	X8	Y8	Z8	X9	Y9	Z9	X10	Y10	Z10	X11	Y11	Z11	X12	Y12	Z12	X13	Y13	Z13	X14	Y14	Z14	X15	Y15	Z15	X16	Y16	Z16	X17	Y17	Z17	X18	Y18	Z18	X19	Y19	Z19	X20	Y20	Z20	X21	Y21	Z21	X22	Y22	Z22	X23	Y23	Z23	X24	Y24	Z24	X25	Y25	Z25	X26	Y26	Z26	X27	Y27	Z27	X28	Y28	Z28	X29	Y29	Z29	X30	Y30	Z30	X31	Y31	Z31	X32	Y32	Z32	X33	Y33	Z33	X34	Y34	Z34	X35	Y35	Z35	X36	Y36	Z36	X37	Y37	Z37	X38	Y38	Z38	X39	Y39	Z39

	29	0.24167	1393.794	635.585	-340.471	1409.786	641.981	-286.345	1403.997	644.273	-403.625	1401.567	341.554	-264.222	1410.362	342.418	-413.958	1384.229	54.598	-243.545	1403.005	55.818	-431.169	1470.981	684.197	-347.346	1475.283	682.494	-260.193	1466.679	685.901	-434.499	1350.851	752.532	-298.500	1346.859	752.081	-383.458	1402.351	344.910	-218.351	1401.962	343.858	-461.196	1396.385	339.927	-313.325	1416.119	338.125	-370.297	1378.967	57.292	-210.571	1389.243	57.935	-460.536	1392.505	53.722	-270.347	1412.442	52.847	-399.559	1345.818	38.149	-258.444	1351.925	37.950	-420.885	1438.147	1021.031	-335.954	1527.452	910.551	-337.846	1357.852	1040.390	-344.686	1456.259	1015.104	-298.475	1457.145	1013.165	-388.242	1475.336	41.420	-228.350	1488.476	39.134	-458.612	1520.665	432.850	-300.658	1455.364	424.111	-517.356	1449.574	485.812	-249.343	1451.793	483.701	-434.863	1440.257	397.551	-245.847	1458.986	400.643	-420.760	1407.797	146.568	-148.083	1500.811	163.628	-414.597	1397.644	200.863	-213.309	1435.343	219.355	-425.286
	30	0.25000	1394.092	635.570	-340.514	1410.054	641.977	-286.366	1404.288	644.266	-403.647	1401.758	341.557	-264.255	1410.646	342.414	-414.013	1384.246	54.607	-243.548	1403.008	55.807	-431.178	1471.262	684.192	-347.355	1475.547	682.491	-260.186	1466.976	685.893	-434.524	1351.126	752.509	-298.569	1347.185	752.069	-383.503	1402.515	344.912	-218.384	1402.236	343.859	-461.248	1395.578	340.118	-313.539	1416.390	338.147	-370.366	1378.964	57.309	-210.577	1389.241	57.933	-460.541	1392.514	53.746	-270.318	1412.417	52.863	-399.544	1345.844	38.159	-258.449	1351.941	37.945	-420.893	1438.315	1021.046	-335.869	1527.743	910.664	-337.689	1358.112	1040.290	-344.592	1456.406	1015.142	-298.383	1457.361	1013.198	-388.136	1475.368	41.411	-228.348	1488.481	39.138	-458.623	1520.896	432.672	-300.868	1455.637	424.086	-517.410	1449.660	485.769	-249.327	1452.108	483.712	-434.938	1439.707	397.186	-245.924	1459.270	400.646	-420.838	1407.796	146.567	-148.091	1500.926	163.561	-414.644	1397.711	200.901	-213.293	1435.536	219.389	-425.331
	31	0.25833	1394.389	635.556	-340.559	1410.310	641.979	-286.390	1404.582	644.263	-403.673	1401.954	341.565	-264.292	1410.916	342.412	-414.073	1384.256	54.619	-243.547	1403.005	55.801	-431.185	1471.536	684.193	-347.362	1475.794	682.495	-260.180	1467.278	685.890	-434.545	1351.407	752.483	-298.643	1347.507	752.055	-383.552	1402.681	344.919	-218.420	1402.498	343.862	-461.307	1394.817	340.323	-313.846	1416.625	338.209	-370.421	1378.953	57.329	-210.581	1389.234	57.934	-460.546	1392.546	53.765	-270.315	1412.382	52.880	-399.532	1345.867	38.161	-258.457	1351.956	37.937	-420.899	1438.485	1021.069	-335.810	1527.994	910.752	-337.571	1358.550	1040.187	-344.341	1456.553	1015.175	-298.315	1457.574	1013.238	-388.058	1475.395	41.409	-228.346	1488.481	39.140	-458.629	1521.147	432.440	-301.138	1455.906	424.061	-517.467	1449.770	485.713	-249.345	1452.409	483.755	-435.026	1439.194	396.817	-246.075	1459.533	400.666	-420.906	1407.792	146.563	-148.102	1501.043	163.508	-414.693	1397.732	200.946	-213.296	1435.741	219.468	-425.390
	32	0.26667	1394.695	635.541	-340.616	1410.556	641.982	-286.427	1404.888	644.265	-403.713	1402.150	341.574	-264.330	1411.167	342.412	-414.135	1384.262	54.631	-243.546	1402.999	55.798	-431.190	1471.812	684.197	-347.368	1476.026	682.500	-260.172	1467.598	685.895	-434.564	1351.695	752.458	-298.724	1347.841	752.039	-383.607	1402.850	344.929	-218.458	1402.745	343.867	-461.369	1395.008	340.303	-313.994	1416.814	338.324	-370.445	1378.940	57.351	-210.583	1389.226	57.938	-460.549	1392.533	53.787	-270.328	1412.338	52.885	-399.525	1345.888	38.159	-258.466	1351.964	37.929	-420.903	1438.676	1021.096	-335.755	1528.223	910.809	-337.486	1358.971	1040.130	-344.120	1456.733	1015.208	-298.248	1457.786	1013.272	-388.003	1475.415	41.411	-228.343	1488.477	39.141	-458.629	1521.428	432.146	-301.462	1456.178	424.035	-517.521	1449.893	485.623	-249.393	1452.713	483.821	-435.153	1439.417	396.812	-246.214	1459.778	400.688	-420.966	1407.788	146.557	-148.116	1501.158	163.462	-414.738	1397.759	200.984	-213.318	1435.961	219.533	-425.474
	33	0.27500	1395.016	635.524	-340.690	1410.798	641.983	-286.479	1405.211	644.277	-403.769	1402.345	341.580	-264.372	1411.399	342.414	-414.196	1384.268	54.642	-243.546	1402.988	55.800	-431.189	1472.098	684.202	-347.374	1476.252	682.497	-260.161	1467.943	685.907	-434.587	1351.992	752.437	-298.811	1348.204	752.024	-383.667	1403.019	344.937	-218.499	1402.978	343.873	-461.429	1395.163	340.368	-314.279	1417.037	338.417	-370.455	1378.928	57.371	-210.588	1389.217	57.945	-460.549	1392.491	53.802	-270.330	1412.295	52.890	-399.514	1345.903	38.158	-258.476	1351.965	37.928	-420.903	1438.882	1021.113	-335.670	1528.520	910.901	-337.403	1359.129	1040.088	-344.135	1456.942	1015.237	-298.166	1458.002	1013.309	-387.913	1475.429	41.418	-228.338	1488.473	39.144	-458.625	1521.597	432.030	-301.511	1456.458	424.014	-517.570	1450.003	485.509	-249.402	1453.002	483.866	-435.282	1439.530	396.837	-246.376	1460.035	400.702	-421.017	1407.791	146.553	-148.134	1501.267	163.418	-414.777	1397.797	201.006	-213.334	1436.161	219.558	-425.517
	34	0.28333	1395.349	635.508	-340.778	1411.042	641.982	-286.542	1405.552	644.295	-403.836	1402.540	341.581	-264.418	1411.612	342.417	-414.252	1384.278	54.652	-243.550	1402.977	55.805	-431.184	1472.397	684.202	-347.379	1476.480	682.481	-260.144	1468.314	685.923	-434.615	1352.300	752.423	-298.901	1348.596	752.018	-383.730	1403.190	344.941	-218.545	1403.195	343.878	-461.486	1395.186	340.521	-314.625	1417.270	338.442	-370.461	1378.920	57.390	-210.594	1389.209	57.955	-460.545	1392.493	53.799	-270.318	1412.268	52.905	-399.500	1345.914	38.166	-258.486	1351.963	37.934	-420.898	1439.075	1021.102	-335.554	1528.826	910.982	-337.269	1359.174	1040.025	-344.218	1457.135	1015.246	-298.063	1458.210	1013.316	-387.778	1475.438	41.425	-228.332	1488.470	39.149	-458.615	1521.751	431.959	-301.473	1456.750	423.999	-517.613	1450.118	485.401	-249.368	1453.287	483.860	-435.334	1439.523	396.846	-246.536	1460.297	400.694	-421.034	1407.802	146.552	-148.155	1501.368	163.370	-414.809	1397.839	201.009	-213.352	1436.316	219.557	-425.504
	35	0.29167	1395.685	635.497	-340.872	1411.292	641.977	-286.604	1405.903	644.320	-403.902	1402.733	341.582	-264.470	1411.810	342.420	-414.301	1384.292	54.660	-243.555	1402.965	55.813	-431.177	1472.709	684.197	-347.378	1476.718	682.454	-260.115	1468.700	685.940	-434.642	1352.619	752.417	-298.991	1349.004	752.024	-383.798	1403.362	344.944	-218.597	1403.399	343.882	-461.535	1395.453	340.500	-314.775	1417.514	338.427	-370.492	1378.919	57.407	-210.603	1389.202	57.966	-460.540	1392.513	53.804	-270.314	1412.247	52.923	-399.485	1345.922	38.184	-258.495	1351.959	37.949	-420.890	1439.255	1021.083	-335.444	1529.084	911.025	-337.107	1359.321	1039.956	-344.136	1457.301	1015.242	-297.959	1458.421	1013.306	-387.642	1475.447	41.434	-228.323	1488.469	39.157	-458.600	1521.933	431.886	-301.426	1457.050	423.989	-517.650	1450.240	485.300	-249.341	1453.576	483.836	-435.349	1439.706	396.844	-246.600	1460.566	400.680	-421.052	1407.817	146.558	-148.175	1501.460	163.318	-414.834	1397.907	201.014	-213.375	1436.453	219.558	-425.502
